<mxfile host="app.diagrams.net" modified="2024-01-05T01:28:49.079Z" agent="Mozilla/5.0 (Windows NT 10.0; Win64; x64) AppleWebKit/537.36 (KHTML, like Gecko) Chrome/119.0.0.0 Safari/537.36" version="22.1.16" etag="NIL-jrGxLYt06dcbzsU3" type="github">
  <diagram name="第 1 页" id="YKVauSOaGJ1t24l05i5_">
    <mxGraphModel>
      <root>
        <mxCell id="0" />
        <mxCell id="1" parent="0" />
      </root>
    </mxGraphModel>
  </diagram>
</mxfile>
